{
 "asset": {
  "version": "2.0",
  "generator": "GameEngine tools/generate_level.py"
 },
 "scene": 0,
 "scenes": [
  {
   "nodes": [
    0
   ]
  }
 ],
 "nodes": [
  {
   "mesh": 0,
   "name": "niveau_papier_peint"
  }
 ],
 "meshes": [
  {
   "name": "niveau_papier_peint",
   "primitives": [
    {
     "attributes": {
      "POSITION": 0,
      "NORMAL": 1,
      "TEXCOORD_0": 2
     },
     "indices": 3,
     "material": 0
    }
   ]
  }
 ],
 "materials": [
  {
   "name": "papier_peint",
   "pbrMetallicRoughness": {
    "baseColorFactor": [
     1.0,
     1.0,
     1.0,
     1.0
    ],
    "metallicFactor": 0.0,
    "roughnessFactor": 1.0
   }
  }
 ],
 "buffers": [
  {
   "uri": "niveau_papier_peint.bin",
   "byteLength": 6080
  }
 ],
 "bufferViews": [
  {
   "buffer": 0,
   "byteOffset": 0,
   "byteLength": 1920,
   "target": 34962
  },
  {
   "buffer": 0,
   "byteOffset": 1920,
   "byteLength": 1920,
   "target": 34962
  },
  {
   "buffer": 0,
   "byteOffset": 3840,
   "byteLength": 1280,
   "target": 34962
  },
  {
   "buffer": 0,
   "byteOffset": 5120,
   "byteLength": 960,
   "target": 34963
  }
 ],
 "accessors": [
  {
   "bufferView": 0,
   "componentType": 5126,
   "count": 160,
   "type": "VEC3",
   "min": [
    -13,
    0.0,
    0
   ],
   "max": [
    10,
    3.6,
    35
   ]
  },
  {
   "bufferView": 1,
   "componentType": 5126,
   "count": 160,
   "type": "VEC3"
  },
  {
   "bufferView": 2,
   "componentType": 5126,
   "count": 160,
   "type": "VEC2"
  },
  {
   "bufferView": 3,
   "componentType": 5125,
   "count": 240,
   "type": "SCALAR"
  }
 ]
}