{
 "asset": {
  "version": "2.0",
  "generator": "GameEngine tools/generate_level.py"
 },
 "scene": 0,
 "scenes": [
  {
   "nodes": [
    0
   ]
  }
 ],
 "nodes": [
  {
   "mesh": 0,
   "name": "niveau_carrelage_mural"
  }
 ],
 "meshes": [
  {
   "name": "niveau_carrelage_mural",
   "primitives": [
    {
     "attributes": {
      "POSITION": 0,
      "NORMAL": 1,
      "TEXCOORD_0": 2
     },
     "indices": 3,
     "material": 0
    }
   ]
  }
 ],
 "materials": [
  {
   "name": "carrelage_mural",
   "pbrMetallicRoughness": {
    "baseColorFactor": [
     1.0,
     1.0,
     1.0,
     1.0
    ],
    "metallicFactor": 0.0,
    "roughnessFactor": 1.0
   }
  }
 ],
 "buffers": [
  {
   "uri": "niveau_carrelage_mural.bin",
   "byteLength": 8512
  }
 ],
 "bufferViews": [
  {
   "buffer": 0,
   "byteOffset": 0,
   "byteLength": 2688,
   "target": 34962
  },
  {
   "buffer": 0,
   "byteOffset": 2688,
   "byteLength": 2688,
   "target": 34962
  },
  {
   "buffer": 0,
   "byteOffset": 5376,
   "byteLength": 1792,
   "target": 34962
  },
  {
   "buffer": 0,
   "byteOffset": 7168,
   "byteLength": 1344,
   "target": 34963
  }
 ],
 "accessors": [
  {
   "bufferView": 0,
   "componentType": 5126,
   "count": 224,
   "type": "VEC3",
   "min": [
    -16,
    0.0,
    0
   ],
   "max": [
    13,
    1.15,
    27
   ]
  },
  {
   "bufferView": 1,
   "componentType": 5126,
   "count": 224,
   "type": "VEC3"
  },
  {
   "bufferView": 2,
   "componentType": 5126,
   "count": 224,
   "type": "VEC2"
  },
  {
   "bufferView": 3,
   "componentType": 5125,
   "count": 336,
   "type": "SCALAR"
  }
 ]
}