{
 "asset": {
  "version": "2.0",
  "generator": "GameEngine tools/generate_level.py"
 },
 "scene": 0,
 "scenes": [
  {
   "nodes": [
    0
   ]
  }
 ],
 "nodes": [
  {
   "mesh": 0,
   "name": "niveau_brique"
  }
 ],
 "meshes": [
  {
   "name": "niveau_brique",
   "primitives": [
    {
     "attributes": {
      "POSITION": 0,
      "NORMAL": 1,
      "TEXCOORD_0": 2
     },
     "indices": 3,
     "material": 0
    }
   ]
  }
 ],
 "materials": [
  {
   "name": "brique",
   "pbrMetallicRoughness": {
    "baseColorFactor": [
     1.0,
     1.0,
     1.0,
     1.0
    ],
    "metallicFactor": 0.0,
    "roughnessFactor": 1.0
   }
  }
 ],
 "buffers": [
  {
   "uri": "niveau_brique.bin",
   "byteLength": 3344
  }
 ],
 "bufferViews": [
  {
   "buffer": 0,
   "byteOffset": 0,
   "byteLength": 1056,
   "target": 34962
  },
  {
   "buffer": 0,
   "byteOffset": 1056,
   "byteLength": 1056,
   "target": 34962
  },
  {
   "buffer": 0,
   "byteOffset": 2112,
   "byteLength": 704,
   "target": 34962
  },
  {
   "buffer": 0,
   "byteOffset": 2816,
   "byteLength": 528,
   "target": 34963
  }
 ],
 "accessors": [
  {
   "bufferView": 0,
   "componentType": 5126,
   "count": 88,
   "type": "VEC3",
   "min": [
    2,
    0.14,
    9
   ],
   "max": [
    16,
    4.0200000000000005,
    27
   ]
  },
  {
   "bufferView": 1,
   "componentType": 5126,
   "count": 88,
   "type": "VEC3"
  },
  {
   "bufferView": 2,
   "componentType": 5126,
   "count": 88,
   "type": "VEC2"
  },
  {
   "bufferView": 3,
   "componentType": 5125,
   "count": 132,
   "type": "SCALAR"
  }
 ]
}