{
 "asset": {
  "version": "2.0",
  "generator": "GameEngine tools/generate_level.py"
 },
 "scene": 0,
 "scenes": [
  {
   "nodes": [
    0
   ]
  }
 ],
 "nodes": [
  {
   "mesh": 0,
   "name": "niveau_beton"
  }
 ],
 "meshes": [
  {
   "name": "niveau_beton",
   "primitives": [
    {
     "attributes": {
      "POSITION": 0,
      "NORMAL": 1,
      "TEXCOORD_0": 2
     },
     "indices": 3,
     "material": 0
    }
   ]
  }
 ],
 "materials": [
  {
   "name": "beton",
   "pbrMetallicRoughness": {
    "baseColorFactor": [
     1.0,
     1.0,
     1.0,
     1.0
    ],
    "metallicFactor": 0.0,
    "roughnessFactor": 1.0
   }
  }
 ],
 "buffers": [
  {
   "uri": "niveau_beton.bin",
   "byteLength": 32224
  }
 ],
 "bufferViews": [
  {
   "buffer": 0,
   "byteOffset": 0,
   "byteLength": 10176,
   "target": 34962
  },
  {
   "buffer": 0,
   "byteOffset": 10176,
   "byteLength": 10176,
   "target": 34962
  },
  {
   "buffer": 0,
   "byteOffset": 20352,
   "byteLength": 6784,
   "target": 34962
  },
  {
   "buffer": 0,
   "byteOffset": 27136,
   "byteLength": 5088,
   "target": 34963
  }
 ],
 "accessors": [
  {
   "bufferView": 0,
   "componentType": 5126,
   "count": 848,
   "type": "VEC3",
   "min": [
    -8,
    0.0,
    0
   ],
   "max": [
    8,
    3.0,
    21
   ]
  },
  {
   "bufferView": 1,
   "componentType": 5126,
   "count": 848,
   "type": "VEC3"
  },
  {
   "bufferView": 2,
   "componentType": 5126,
   "count": 848,
   "type": "VEC2"
  },
  {
   "bufferView": 3,
   "componentType": 5125,
   "count": 1272,
   "type": "SCALAR"
  }
 ]
}