{
 "asset": {
  "version": "2.0",
  "generator": "GameEngine tools/generate_level.py"
 },
 "scene": 0,
 "scenes": [
  {
   "nodes": [
    0
   ]
  }
 ],
 "nodes": [
  {
   "mesh": 0,
   "name": "niveau_plancher"
  }
 ],
 "meshes": [
  {
   "name": "niveau_plancher",
   "primitives": [
    {
     "attributes": {
      "POSITION": 0,
      "NORMAL": 1,
      "TEXCOORD_0": 2
     },
     "indices": 3,
     "material": 0
    }
   ]
  }
 ],
 "materials": [
  {
   "name": "plancher",
   "pbrMetallicRoughness": {
    "baseColorFactor": [
     1.0,
     1.0,
     1.0,
     1.0
    ],
    "metallicFactor": 0.0,
    "roughnessFactor": 1.0
   }
  }
 ],
 "buffers": [
  {
   "uri": "niveau_plancher.bin",
   "byteLength": 12768
  }
 ],
 "bufferViews": [
  {
   "buffer": 0,
   "byteOffset": 0,
   "byteLength": 4032,
   "target": 34962
  },
  {
   "buffer": 0,
   "byteOffset": 4032,
   "byteLength": 4032,
   "target": 34962
  },
  {
   "buffer": 0,
   "byteOffset": 8064,
   "byteLength": 2688,
   "target": 34962
  },
  {
   "buffer": 0,
   "byteOffset": 10752,
   "byteLength": 2016,
   "target": 34963
  }
 ],
 "accessors": [
  {
   "bufferView": 0,
   "componentType": 5126,
   "count": 336,
   "type": "VEC3",
   "min": [
    -8,
    0.0,
    8
   ],
   "max": [
    8,
    0.0,
    15
   ]
  },
  {
   "bufferView": 1,
   "componentType": 5126,
   "count": 336,
   "type": "VEC3"
  },
  {
   "bufferView": 2,
   "componentType": 5126,
   "count": 336,
   "type": "VEC2"
  },
  {
   "bufferView": 3,
   "componentType": 5125,
   "count": 504,
   "type": "SCALAR"
  }
 ]
}